<mxfile host="app.diagrams.net" modified="2023-04-22T02:38:31.343Z" agent="Mozilla/5.0 (Windows NT 10.0; Win64; x64) AppleWebKit/537.36 (KHTML, like Gecko) Chrome/112.0.0.0 Safari/537.36" version="21.1.8" etag="W7kf8Fva6SCSyqKgyDKn" type="github">
  <diagram name="PÃ¡gina-1" id="Cxt1527_H_dzp0icZ4zD">
    <mxGraphModel>
      <root>
        <mxCell id="0" />
        <mxCell id="1" parent="0" />
      </root>
    </mxGraphModel>
  </diagram>
</mxfile>
